<svg xmlns="http://www.w3.org/2000/svg" xmlns:xlink="http://www.w3.org/1999/xlink" xmlns:svgjs="http://svgjs.dev/svgjs" version="1.1" width="1000" height="1012" viewBox="0 0 1000 1012"><g transform="matrix(1,0,0,1,0.8839469350386935,0.40971659919023296)"><svg xmlns="http://www.w3.org/2000/svg" xmlns:xlink="http://www.w3.org/1999/xlink" viewBox="0 0 244 247" data-background-color="#ea3b76" preserveAspectRatio="xMidYMid meet" height="1012" width="1000"><g id="tight-bounds" transform="matrix(1,0,0,1,-0.21568305214944417,-0.09999999999999432)"><svg viewBox="0 0 244.43135999999998 247.2" height="247.2" width="244.43135999999998"><g><svg/></g><g><svg viewBox="0 0 244.43135999999998 247.2" height="247.2" width="244.43135999999998"><g transform="matrix(1,0,0,1,0,59.19173656301146)"><svg viewBox="0 0 244.43135999999998 128.81652687397707" height="128.81652687397707" width="244.43135999999998"><g><svg viewBox="0 0 244.43135999999998 128.81652687397707" height="128.81652687397707" width="244.43135999999998"><g><svg viewBox="0 0 244.43135999999998 128.81652687397707" height="128.81652687397707" width="244.43135999999998"><g><svg viewBox="0 0 244.43135999999998 128.81652687397707" height="128.81652687397707" width="244.43135999999998"><g id="textblocktransform"><svg viewBox="0 0 244.43135999999998 128.81652687397707" height="128.81652687397707" width="244.43135999999998" id="textblock"><g><svg viewBox="0 0 244.43135999999998 128.81652687397707" height="128.81652687397707" width="244.43135999999998"><g transform="matrix(1,0,0,1,0,0)"><svg width="244.43135999999998" viewBox="3.25 -31.950000762939453 61.099998474121094 32.20000076293945" height="128.81652687397707" data-palette-color="#ea3b76"><path d="M8.85-29Q8.85-27.55 8.75-25.15L8.75-25.15 8.7-21.9Q8.7-17.15 9.4-13.95L9.4-13.95Q10.4-9.45 12.4-7L12.4-7Q14.25-4.85 16.95-4.85L16.95-4.85Q19.05-4.85 20.7-6.13 22.35-7.4 23.25-9.3L23.25-9.3Q24.75-12.4 24.75-16.95L24.75-16.95Q24.75-19.7 24.4-23.45L24.4-23.45Q24.1-27.65 24.1-29.75L24.1-29.75Q24.1-30.85 25.4-31.18 26.7-31.5 28.1-31.5L28.1-31.5Q28.6-31.5 29.25-30.85 29.9-30.2 29.9-29.45L29.9-29.45Q29.9-27.95 29.75-26.6L29.75-26.6Q29.65-25.1 29.65-24.5L29.65-24.5Q29.65-22.6 29.85-19.2L29.85-19.2Q29.9-18.35 29.95-17.15 30-15.95 30-14.4L30-14.4Q30-11 28.38-7.63 26.75-4.25 23.85-2.08 20.95 0.1 17.3 0.1L17.3 0.1Q11.7 0.1 8.55-3.53 5.4-7.15 4.25-12.9L4.25-12.9Q3.6-16.2 3.43-19.8 3.25-23.4 3.25-29.45L3.25-29.45Q3.25-30.25 4.03-30.95 4.8-31.65 5.7-31.65L5.7-31.65Q8.85-31.65 8.85-29L8.85-29ZM59.55-0.75Q58.9-1.6 58.45-2.63 58-3.65 57.5-5.1L57.5-5.1Q57.4-5.35 56.92-6.6 56.45-7.85 55.85-8.75L55.85-8.75Q52.7-8.3 50.7-8.3L50.7-8.3Q49.6-8.3 48.27-8.38 46.95-8.45 46.3-8.45L46.3-8.45Q43.8-8.65 42.3-8.65L42.3-8.65Q41.7-7.85 41.27-6.95 40.85-6.05 40.2-4.25L40.2-4.25Q39.3-1.65 38.65-0.55L38.65-0.55Q38.2 0.2 36.9 0.2L36.9 0.2Q35.8 0.2 34.87-0.28 33.95-0.75 33.95-1.6L33.95-1.6Q34.35-3.5 35.22-5.63 36.1-7.75 37.75-11.3L37.75-11.3 39.75-16.2Q41.4-20.4 42.77-23.4 44.15-26.4 46.4-30.5L46.4-30.5Q46.7-31.1 47.4-31.53 48.1-31.95 48.95-31.95L48.95-31.95Q49.9-31.95 50.32-31.83 50.75-31.7 51-31.43 51.25-31.15 51.75-30.3L51.75-30.3Q53.45-27.65 54.67-24.85 55.9-22.05 57.8-17.1L57.8-17.1 58.85-14.45Q60.25-10.85 61.27-8.43 62.3-6 63.55-4L63.55-4Q64.35-2.7 64.35-2.2L64.35-2.2Q64.35-1 63.62-0.38 62.9 0.25 61.75 0.25L61.75 0.25Q60.3 0.25 59.55-0.75L59.55-0.75ZM54.4-12.85Q53.6-14.55 52.1-18.75L52.1-18.75Q50.55-23.25 49-25.9L49-25.9Q48.05-23.5 46.2-19.7L46.2-19.7Q44.95-17.35 43.35-12.9L43.35-12.9Q46.55-12.5 50.25-12.5L50.25-12.5Q52.9-12.5 54.4-12.85L54.4-12.85Z" opacity="1" transform="matrix(1,0,0,1,0,0)" fill="#ea3b76" class="wordmark-text-0" data-fill-palette-color="primary" id="text-0"/></svg></g></svg></g></svg></g></svg></g><g/></svg></g></svg></g></svg></g><path d="M0 53.192L0 1 244.431 1 244.431 53.192 232.815 53.192 232.815 12.617 11.617 12.617 11.617 53.192 0 53.192M0 194.008L0 246.2 244.431 246.2 244.431 194.008 232.815 194.008 232.815 234.583 11.617 234.583 11.617 194.008 0 194.008" fill="#ea3b76" stroke="transparent" data-fill-palette-color="primary"/></svg></g><defs fill="#ea3b76"/></svg><rect width="244.43135999999998" height="247.2" fill="none" stroke="none" visibility="hidden"/></g></svg></g></svg>
