<?xml version="1.0" encoding="UTF-8"?>
<!DOCTYPE svg PUBLIC "-//W3C//DTD SVG 1.1//EN" "http://www.w3.org/Graphics/SVG/1.1/DTD/svg11.dtd">
<svg xmlns="http://www.w3.org/2000/svg" xmlns:xlink="http://www.w3.org/1999/xlink" version="1.1" width="476px" height="342px" viewBox="-0.5 -0.5 476 342"><defs/><g><path d="M 27 46 L 7 46 L 7 182.5 L 47.42 182.46" fill="none" stroke="rgb(0, 0, 0)" stroke-miterlimit="10" pointer-events="stroke"/><path d="M 47.42 178.46 L 39.42 182.47 L 47.42 186.46" fill="none" stroke="rgb(0, 0, 0)" stroke-miterlimit="10" pointer-events="all"/><path d="M 107 31 L 107 14.5 Q 107 1 93.5 1 L 40.5 1 Q 27 1 27 14.5 L 27 31" fill="rgb(255, 255, 255)" stroke="rgb(0, 0, 0)" stroke-width="2" stroke-miterlimit="10" pointer-events="all"/><path d="M 27 31 L 27 47.5 Q 27 61 40.5 61 L 93.5 61 Q 107 61 107 47.5 L 107 31" fill="none" stroke="rgb(0, 0, 0)" stroke-width="2" stroke-miterlimit="10" pointer-events="none"/><path d="M 27 31 L 107 31" fill="none" stroke="rgb(0, 0, 0)" stroke-width="2" stroke-miterlimit="10" pointer-events="none"/><g fill="rgb(0, 0, 0)" font-family="Comic Sans MS" pointer-events="none" text-anchor="middle" font-size="14px"><text x="66.5" y="21.5">lead</text></g><g fill="rgb(0, 0, 0)" font-family="Comic Sans MS" pointer-events="none" font-size="12px"><text x="32.5" y="48.5">- id</text></g><path d="M 417 31 L 417 14.5 Q 417 1 403.5 1 L 350.5 1 Q 337 1 337 14.5 L 337 31" fill="rgb(255, 255, 255)" stroke="rgb(0, 0, 0)" stroke-width="2" stroke-miterlimit="10" pointer-events="none"/><path d="M 337 31 L 337 47.5 Q 337 61 350.5 61 L 403.5 61 Q 417 61 417 47.5 L 417 31" fill="none" stroke="rgb(0, 0, 0)" stroke-width="2" stroke-miterlimit="10" pointer-events="none"/><path d="M 337 31 L 417 31" fill="none" stroke="rgb(0, 0, 0)" stroke-width="2" stroke-miterlimit="10" pointer-events="none"/><g fill="rgb(0, 0, 0)" font-family="Comic Sans MS" pointer-events="none" text-anchor="middle" font-size="14px"><text x="376.5" y="21.5">pipleine</text></g><g fill="rgb(0, 0, 0)" font-family="Comic Sans MS" pointer-events="none" font-size="12px"><text x="342.5" y="48.5">- id</text></g><path d="M 402 131 L 467 131 L 467 269.9 L 446.43 269.85" fill="none" stroke="rgb(0, 0, 0)" stroke-miterlimit="10" pointer-events="none"/><path d="M 446.42 273.85 L 454.43 269.87 L 446.44 265.85" fill="none" stroke="rgb(0, 0, 0)" stroke-miterlimit="10" pointer-events="none"/><path d="M 402 121 L 402 104.5 Q 402 91 388.5 91 L 275.5 91 Q 262 91 262 104.5 L 262 121" fill="rgb(255, 255, 255)" stroke="rgb(0, 0, 0)" stroke-width="2" stroke-miterlimit="10" pointer-events="none"/><path d="M 262 121 L 262 157.5 Q 262 171 275.5 171 L 388.5 171 Q 402 171 402 157.5 L 402 121" fill="none" stroke="rgb(0, 0, 0)" stroke-width="2" stroke-miterlimit="10" pointer-events="none"/><path d="M 262 121 L 402 121" fill="none" stroke="rgb(0, 0, 0)" stroke-width="2" stroke-miterlimit="10" pointer-events="none"/><g fill="rgb(0, 0, 0)" font-family="Comic Sans MS" pointer-events="none" text-anchor="middle" font-size="14px"><text x="331.5" y="111.5">pipleine_stages</text></g><g fill="rgb(0, 0, 0)" font-family="Comic Sans MS" pointer-events="none" font-size="12px"><text x="267.5" y="138.5">- id</text><text x="267.5" y="152.5">- pipeline_id</text></g><path d="M 447 241 L 447 224.5 Q 447 211 433.5 211 L 270.5 211 Q 257 211 257 224.5 L 257 241" fill="rgb(255, 255, 255)" stroke="rgb(0, 0, 0)" stroke-width="2" stroke-miterlimit="10" pointer-events="none"/><path d="M 257 241 L 257 277.5 Q 257 291 270.5 291 L 433.5 291 Q 447 291 447 277.5 L 447 241" fill="none" stroke="rgb(0, 0, 0)" stroke-width="2" stroke-miterlimit="10" pointer-events="none"/><path d="M 257 241 L 447 241" fill="none" stroke="rgb(0, 0, 0)" stroke-width="2" stroke-miterlimit="10" pointer-events="none"/><g fill="rgb(0, 0, 0)" font-family="Comic Sans MS" pointer-events="none" text-anchor="middle" font-size="14px"><text x="351.5" y="231.5">pipleine_stage_actions</text></g><g fill="rgb(0, 0, 0)" font-family="Comic Sans MS" pointer-events="none" font-size="12px"><text x="262.5" y="258.5">- id</text><text x="262.5" y="272.5">- pipeline_stage_id</text></g><path d="M 187 141 L 187 124.5 Q 187 111 173.5 111 L 60.5 111 Q 47 111 47 124.5 L 47 141" fill="rgb(255, 255, 255)" stroke="rgb(0, 0, 0)" stroke-width="2" stroke-miterlimit="10" pointer-events="none"/><path d="M 47 141 L 47 187.5 Q 47 201 60.5 201 L 173.5 201 Q 187 201 187 187.5 L 187 141" fill="none" stroke="rgb(0, 0, 0)" stroke-width="2" stroke-miterlimit="10" pointer-events="none"/><path d="M 47 141 L 187 141" fill="none" stroke="rgb(0, 0, 0)" stroke-width="2" stroke-miterlimit="10" pointer-events="none"/><g fill="rgb(0, 0, 0)" font-family="Comic Sans MS" pointer-events="none" text-anchor="middle" font-size="14px"><text x="116.5" y="131.5">lead_stages</text></g><g fill="rgb(0, 0, 0)" font-family="Comic Sans MS" pointer-events="none" font-size="12px"><text x="52.5" y="158.5">- id</text><text x="52.5" y="172.5">- pipeline_stage_id</text><text x="52.5" y="186.5">- lead_id</text></g><path d="M 197 281 L 197 264.5 Q 197 251 183.5 251 L 50.5 251 Q 37 251 37 264.5 L 37 281" fill="rgb(255, 255, 255)" stroke="rgb(0, 0, 0)" stroke-width="2" stroke-miterlimit="10" pointer-events="none"/><path d="M 37 281 L 37 327.5 Q 37 341 50.5 341 L 183.5 341 Q 197 341 197 327.5 L 197 281" fill="none" stroke="rgb(0, 0, 0)" stroke-width="2" stroke-miterlimit="10" pointer-events="none"/><path d="M 37 281 L 197 281" fill="none" stroke="rgb(0, 0, 0)" stroke-width="2" stroke-miterlimit="10" pointer-events="none"/><g fill="rgb(0, 0, 0)" font-family="Comic Sans MS" pointer-events="none" text-anchor="middle" font-size="14px"><text x="116.5" y="271.5">lead_stage_actions</text></g><g fill="rgb(0, 0, 0)" font-family="Comic Sans MS" pointer-events="none" font-size="12px"><text x="42.5" y="298.5">- id</text><text x="42.5" y="312.5">- lead_stage_id</text><text x="42.5" y="326.5">- pipeline_stage_action_id</text></g><path d="M 417 46 L 437 46 L 437 149.4 L 402.84 149.4" fill="none" stroke="rgb(0, 0, 0)" stroke-miterlimit="10" pointer-events="none"/><path d="M 402.84 153.4 L 410.84 149.4 L 402.84 145.4" fill="none" stroke="rgb(0, 0, 0)" stroke-miterlimit="10" pointer-events="none"/><path d="M 262 133.5 L 224.5 133.5 L 224.5 171 L 187 171" fill="none" stroke="rgb(0, 0, 0)" stroke-miterlimit="10" pointer-events="none"/><path d="M 187 175 L 195 171 L 187 167" fill="none" stroke="rgb(0, 0, 0)" stroke-miterlimit="10" pointer-events="none"/><path d="M 257 253.5 L 227 253.5 L 227 326 L 197 326" fill="none" stroke="rgb(0, 0, 0)" stroke-miterlimit="10" pointer-events="none"/><path d="M 197 330 L 205 326 L 197 322" fill="none" stroke="rgb(0, 0, 0)" stroke-miterlimit="10" pointer-events="none"/><path d="M 47 156 L 27 156 L 27 311 L 37 311" fill="none" stroke="rgb(0, 0, 0)" stroke-miterlimit="10" pointer-events="none"/><path d="M 37 307 L 29 311 L 37 315" fill="none" stroke="rgb(0, 0, 0)" stroke-miterlimit="10" pointer-events="none"/></g></svg>